<svg width="21" height="18" viewBox="0 0 21 18" fill="none" xmlns="http://www.w3.org/2000/svg">
<path id="twitter" d="M20.6667 2.79746C19.9308 3.12412 19.14 3.34412 18.31 3.44329C19.1575 2.93579 19.8083 2.13162 20.1142 1.17329C19.3217 1.64329 18.4433 1.98496 17.5083 2.16912C16.7608 1.37162 15.6933 0.873291 14.5133 0.873291C11.8642 0.873291 9.91749 3.34496 10.5158 5.91079C7.10666 5.73996 4.08332 4.10662 2.05916 1.62412C0.984156 3.46829 1.50166 5.88079 3.32832 7.10246C2.65666 7.08079 2.02332 6.89662 1.47082 6.58912C1.42582 8.48996 2.78832 10.2683 4.76166 10.6641C4.18416 10.8208 3.55166 10.8575 2.90832 10.7341C3.42999 12.3641 4.94499 13.55 6.74166 13.5833C5.01666 14.9358 2.84332 15.54 0.666656 15.2833C2.48249 16.4475 4.63999 17.1266 6.95666 17.1266C14.575 17.1266 18.8792 10.6925 18.6192 4.92162C19.4208 4.34246 20.1167 3.61996 20.6667 2.79746Z" fill="white"/>
</svg>
